<svg width="155" height="155" viewBox="0 0 155 155" fill="none" xmlns="http://www.w3.org/2000/svg">
<path d="M58.6544 24.652C65.4328 17.0218 74.649 18.2362 80.5462 24.652L84.1427 28.8159C85.388 30.1708 87.1904 30.8733 89.0238 30.719L95.418 28.8159C104.133 26.9476 112.053 33.4495 112.053 43.5483V47.3525C112.238 49.4295 114.052 50.8371 115.925 51.7521L121.702 54.1657C130.059 58.2466 132.147 67.9302 126.06 76.058L124.33 78.3404C122.779 80.4372 123.098 83.1895 124.642 85.2916L126.371 87.713C132.665 95.4596 129.116 106.088 120.225 109.801L115.252 111.879C113.379 112.661 112.645 114.003 112.295 116.003L111.949 122.505C110.739 131.428 102.814 135.458 96.4555 134.557L88.8814 132.534C87.062 132.277 84.8005 132.88 83.59 134.783L80.8577 138.518C74.0793 146.161 64.93 144.89 60.3144 140.42L55.2744 134.316C53.9545 133.037 52.2907 131.947 50.2994 132.698L42.6763 134.783C36.3828 135.673 28.9721 130.835 27.786 124.591L26.9057 115.553C26.5484 113.673 25.308 112.078 23.5726 111.27L18.225 109.432C10.1836 105.685 7.49017 96.6125 12.1074 89.0368L15.1214 84.8688C16.332 82.8824 16.2745 80.3728 14.9741 78.444L12.7261 75.2622C6.36259 66.201 10.7623 56.0732 20.1919 53.0371L22.2716 52.3672C24.5671 51.6281 26.7844 49.722 26.9751 47.318L27.4382 41.4823C28.1899 32.0101 36.8334 26.5747 45.9246 29.3385L48.8671 30.233C51.7027 31.3397 53.9245 30.3972 55.4726 28.7112L58.6544 24.652Z" fill="url(#paint0_linear_8_1297)"/>
<path d="M58.6544 24.652C65.4328 17.0218 74.649 18.2362 80.5462 24.652L84.1427 28.8159C85.388 30.1708 87.1904 30.8733 89.0238 30.719L95.418 28.8159C104.133 26.9476 112.053 33.4495 112.053 43.5483V47.3525C112.238 49.4295 114.052 50.8371 115.925 51.7521L121.702 54.1657C130.059 58.2466 132.147 67.9302 126.06 76.058L124.33 78.3404C122.779 80.4372 123.098 83.1895 124.642 85.2916L126.371 87.713C132.665 95.4596 129.116 106.088 120.225 109.801L115.252 111.879C113.379 112.661 112.645 114.003 112.295 116.003L111.949 122.505C110.739 131.428 102.814 135.458 96.4555 134.557L88.8814 132.534C87.062 132.277 84.8005 132.88 83.59 134.783L80.8577 138.518C74.0793 146.161 64.93 144.89 60.3144 140.42L55.2744 134.316C53.9545 133.037 52.2907 131.947 50.2994 132.698L42.6763 134.783C36.3828 135.673 28.9721 130.835 27.786 124.591L26.9057 115.553C26.5484 113.673 25.308 112.078 23.5726 111.27L18.225 109.432C10.1836 105.685 7.49017 96.6125 12.1074 89.0368L15.1214 84.8688C16.332 82.8824 16.2745 80.3728 14.9741 78.444L12.7261 75.2622C6.36259 66.201 10.7623 56.0732 20.1919 53.0371L22.2716 52.3672C24.5671 51.6281 26.7844 49.722 26.9751 47.318L27.4382 41.4823C28.1899 32.0101 36.8334 26.5747 45.9246 29.3385L48.8671 30.233C51.7027 31.3397 53.9245 30.3972 55.4726 28.7112L58.6544 24.652Z" fill="url(#paint1_radial_8_1297)"/>
<path d="M58.6544 24.652C65.4328 17.0218 74.649 18.2362 80.5462 24.652L84.1427 28.8159C85.388 30.1708 87.1904 30.8733 89.0238 30.719L95.418 28.8159C104.133 26.9476 112.053 33.4495 112.053 43.5483V47.3525C112.238 49.4295 114.052 50.8371 115.925 51.7521L121.702 54.1657C130.059 58.2466 132.147 67.9302 126.06 76.058L124.33 78.3404C122.779 80.4372 123.098 83.1895 124.642 85.2916L126.371 87.713C132.665 95.4596 129.116 106.088 120.225 109.801L115.252 111.879C113.379 112.661 112.645 114.003 112.295 116.003L111.949 122.505C110.739 131.428 102.814 135.458 96.4555 134.557L88.8814 132.534C87.062 132.277 84.8005 132.88 83.59 134.783L80.8577 138.518C74.0793 146.161 64.93 144.89 60.3144 140.42L55.2744 134.316C53.9545 133.037 52.2907 131.947 50.2994 132.698L42.6763 134.783C36.3828 135.673 28.9721 130.835 27.786 124.591L26.9057 115.553C26.5484 113.673 25.308 112.078 23.5726 111.27L18.225 109.432C10.1836 105.685 7.49017 96.6125 12.1074 89.0368L15.1214 84.8688C16.332 82.8824 16.2745 80.3728 14.9741 78.444L12.7261 75.2622C6.36259 66.201 10.7623 56.0732 20.1919 53.0371L22.2716 52.3672C24.5671 51.6281 26.7844 49.722 26.9751 47.318L27.4382 41.4823C28.1899 32.0101 36.8334 26.5747 45.9246 29.3385L48.8671 30.233C51.7027 31.3397 53.9245 30.3972 55.4726 28.7112L58.6544 24.652Z" fill="url(#paint2_radial_8_1297)"/>
<path d="M58.6544 24.652C65.4328 17.0218 74.649 18.2362 80.5462 24.652L84.1427 28.8159C85.388 30.1708 87.1904 30.8733 89.0238 30.719L95.418 28.8159C104.133 26.9476 112.053 33.4495 112.053 43.5483V47.3525C112.238 49.4295 114.052 50.8371 115.925 51.7521L121.702 54.1657C130.059 58.2466 132.147 67.9302 126.06 76.058L124.33 78.3404C122.779 80.4372 123.098 83.1895 124.642 85.2916L126.371 87.713C132.665 95.4596 129.116 106.088 120.225 109.801L115.252 111.879C113.379 112.661 112.645 114.003 112.295 116.003L111.949 122.505C110.739 131.428 102.814 135.458 96.4555 134.557L88.8814 132.534C87.062 132.277 84.8005 132.88 83.59 134.783L80.8577 138.518C74.0793 146.161 64.93 144.89 60.3144 140.42L55.2744 134.316C53.9545 133.037 52.2907 131.947 50.2994 132.698L42.6763 134.783C36.3828 135.673 28.9721 130.835 27.786 124.591L26.9057 115.553C26.5484 113.673 25.308 112.078 23.5726 111.27L18.225 109.432C10.1836 105.685 7.49017 96.6125 12.1074 89.0368L15.1214 84.8688C16.332 82.8824 16.2745 80.3728 14.9741 78.444L12.7261 75.2622C6.36259 66.201 10.7623 56.0732 20.1919 53.0371L22.2716 52.3672C24.5671 51.6281 26.7844 49.722 26.9751 47.318L27.4382 41.4823C28.1899 32.0101 36.8334 26.5747 45.9246 29.3385L48.8671 30.233C51.7027 31.3397 53.9245 30.3972 55.4726 28.7112L58.6544 24.652Z" fill="url(#paint3_radial_8_1297)"/>
<path d="M58.6544 24.652C65.4328 17.0218 74.649 18.2362 80.5462 24.652L84.1427 28.8159C85.388 30.1708 87.1904 30.8733 89.0238 30.719L95.418 28.8159C104.133 26.9476 112.053 33.4495 112.053 43.5483V47.3525C112.238 49.4295 114.052 50.8371 115.925 51.7521L121.702 54.1657C130.059 58.2466 132.147 67.9302 126.06 76.058L124.33 78.3404C122.779 80.4372 123.098 83.1895 124.642 85.2916L126.371 87.713C132.665 95.4596 129.116 106.088 120.225 109.801L115.252 111.879C113.379 112.661 112.645 114.003 112.295 116.003L111.949 122.505C110.739 131.428 102.814 135.458 96.4555 134.557L88.8814 132.534C87.062 132.277 84.8005 132.88 83.59 134.783L80.8577 138.518C74.0793 146.161 64.93 144.89 60.3144 140.42L55.2744 134.316C53.9545 133.037 52.2907 131.947 50.2994 132.698L42.6763 134.783C36.3828 135.673 28.9721 130.835 27.786 124.591L26.9057 115.553C26.5484 113.673 25.308 112.078 23.5726 111.27L18.225 109.432C10.1836 105.685 7.49017 96.6125 12.1074 89.0368L15.1214 84.8688C16.332 82.8824 16.2745 80.3728 14.9741 78.444L12.7261 75.2622C6.36259 66.201 10.7623 56.0732 20.1919 53.0371L22.2716 52.3672C24.5671 51.6281 26.7844 49.722 26.9751 47.318L27.4382 41.4823C28.1899 32.0101 36.8334 26.5747 45.9246 29.3385L48.8671 30.233C51.7027 31.3397 53.9245 30.3972 55.4726 28.7112L58.6544 24.652Z" fill="url(#paint4_radial_8_1297)"/>
<path d="M58.6544 24.652C65.4328 17.0218 74.649 18.2362 80.5462 24.652L84.1427 28.8159C85.388 30.1708 87.1904 30.8733 89.0238 30.719L95.418 28.8159C104.133 26.9476 112.053 33.4495 112.053 43.5483V47.3525C112.238 49.4295 114.052 50.8371 115.925 51.7521L121.702 54.1657C130.059 58.2466 132.147 67.9302 126.06 76.058L124.33 78.3404C122.779 80.4372 123.098 83.1895 124.642 85.2916L126.371 87.713C132.665 95.4596 129.116 106.088 120.225 109.801L115.252 111.879C113.379 112.661 112.645 114.003 112.295 116.003L111.949 122.505C110.739 131.428 102.814 135.458 96.4555 134.557L88.8814 132.534C87.062 132.277 84.8005 132.88 83.59 134.783L80.8577 138.518C74.0793 146.161 64.93 144.89 60.3144 140.42L55.2744 134.316C53.9545 133.037 52.2907 131.947 50.2994 132.698L42.6763 134.783C36.3828 135.673 28.9721 130.835 27.786 124.591L26.9057 115.553C26.5484 113.673 25.308 112.078 23.5726 111.27L18.225 109.432C10.1836 105.685 7.49017 96.6125 12.1074 89.0368L15.1214 84.8688C16.332 82.8824 16.2745 80.3728 14.9741 78.444L12.7261 75.2622C6.36259 66.201 10.7623 56.0732 20.1919 53.0371L22.2716 52.3672C24.5671 51.6281 26.7844 49.722 26.9751 47.318L27.4382 41.4823C28.1899 32.0101 36.8334 26.5747 45.9246 29.3385L48.8671 30.233C51.7027 31.3397 53.9245 30.3972 55.4726 28.7112L58.6544 24.652Z" fill="url(#paint5_radial_8_1297)"/>
<path d="M58.6544 24.652C65.4328 17.0218 74.649 18.2362 80.5462 24.652L84.1427 28.8159C85.388 30.1708 87.1904 30.8733 89.0238 30.719L95.418 28.8159C104.133 26.9476 112.053 33.4495 112.053 43.5483V47.3525C112.238 49.4295 114.052 50.8371 115.925 51.7521L121.702 54.1657C130.059 58.2466 132.147 67.9302 126.06 76.058L124.33 78.3404C122.779 80.4372 123.098 83.1895 124.642 85.2916L126.371 87.713C132.665 95.4596 129.116 106.088 120.225 109.801L115.252 111.879C113.379 112.661 112.645 114.003 112.295 116.003L111.949 122.505C110.739 131.428 102.814 135.458 96.4555 134.557L88.8814 132.534C87.062 132.277 84.8005 132.88 83.59 134.783L80.8577 138.518C74.0793 146.161 64.93 144.89 60.3144 140.42L55.2744 134.316C53.9545 133.037 52.2907 131.947 50.2994 132.698L42.6763 134.783C36.3828 135.673 28.9721 130.835 27.786 124.591L26.9057 115.553C26.5484 113.673 25.308 112.078 23.5726 111.27L18.225 109.432C10.1836 105.685 7.49017 96.6125 12.1074 89.0368L15.1214 84.8688C16.332 82.8824 16.2745 80.3728 14.9741 78.444L12.7261 75.2622C6.36259 66.201 10.7623 56.0732 20.1919 53.0371L22.2716 52.3672C24.5671 51.6281 26.7844 49.722 26.9751 47.318L27.4382 41.4823C28.1899 32.0101 36.8334 26.5747 45.9246 29.3385L48.8671 30.233C51.7027 31.3397 53.9245 30.3972 55.4726 28.7112L58.6544 24.652Z" fill="url(#paint6_radial_8_1297)"/>
<path d="M58.6544 24.652C65.4328 17.0218 74.649 18.2362 80.5462 24.652L84.1427 28.8159C85.388 30.1708 87.1904 30.8733 89.0238 30.719L95.418 28.8159C104.133 26.9476 112.053 33.4495 112.053 43.5483V47.3525C112.238 49.4295 114.052 50.8371 115.925 51.7521L121.702 54.1657C130.059 58.2466 132.147 67.9302 126.06 76.058L124.33 78.3404C122.779 80.4372 123.098 83.1895 124.642 85.2916L126.371 87.713C132.665 95.4596 129.116 106.088 120.225 109.801L115.252 111.879C113.379 112.661 112.645 114.003 112.295 116.003L111.949 122.505C110.739 131.428 102.814 135.458 96.4555 134.557L88.8814 132.534C87.062 132.277 84.8005 132.88 83.59 134.783L80.8577 138.518C74.0793 146.161 64.93 144.89 60.3144 140.42L55.2744 134.316C53.9545 133.037 52.2907 131.947 50.2994 132.698L42.6763 134.783C36.3828 135.673 28.9721 130.835 27.786 124.591L26.9057 115.553C26.5484 113.673 25.308 112.078 23.5726 111.27L18.225 109.432C10.1836 105.685 7.49017 96.6125 12.1074 89.0368L15.1214 84.8688C16.332 82.8824 16.2745 80.3728 14.9741 78.444L12.7261 75.2622C6.36259 66.201 10.7623 56.0732 20.1919 53.0371L22.2716 52.3672C24.5671 51.6281 26.7844 49.722 26.9751 47.318L27.4382 41.4823C28.1899 32.0101 36.8334 26.5747 45.9246 29.3385L48.8671 30.233C51.7027 31.3397 53.9245 30.3972 55.4726 28.7112L58.6544 24.652Z" fill="url(#paint7_radial_8_1297)"/>
<path d="M58.6544 24.652C65.4328 17.0218 74.649 18.2362 80.5462 24.652L84.1427 28.8159C85.388 30.1708 87.1904 30.8733 89.0238 30.719L95.418 28.8159C104.133 26.9476 112.053 33.4495 112.053 43.5483V47.3525C112.238 49.4295 114.052 50.8371 115.925 51.7521L121.702 54.1657C130.059 58.2466 132.147 67.9302 126.06 76.058L124.33 78.3404C122.779 80.4372 123.098 83.1895 124.642 85.2916L126.371 87.713C132.665 95.4596 129.116 106.088 120.225 109.801L115.252 111.879C113.379 112.661 112.645 114.003 112.295 116.003L111.949 122.505C110.739 131.428 102.814 135.458 96.4555 134.557L88.8814 132.534C87.062 132.277 84.8005 132.88 83.59 134.783L80.8577 138.518C74.0793 146.161 64.93 144.89 60.3144 140.42L55.2744 134.316C53.9545 133.037 52.2907 131.947 50.2994 132.698L42.6763 134.783C36.3828 135.673 28.9721 130.835 27.786 124.591L26.9057 115.553C26.5484 113.673 25.308 112.078 23.5726 111.27L18.225 109.432C10.1836 105.685 7.49017 96.6125 12.1074 89.0368L15.1214 84.8688C16.332 82.8824 16.2745 80.3728 14.9741 78.444L12.7261 75.2622C6.36259 66.201 10.7623 56.0732 20.1919 53.0371L22.2716 52.3672C24.5671 51.6281 26.7844 49.722 26.9751 47.318L27.4382 41.4823C28.1899 32.0101 36.8334 26.5747 45.9246 29.3385L48.8671 30.233C51.7027 31.3397 53.9245 30.3972 55.4726 28.7112L58.6544 24.652Z" fill="url(#paint8_radial_8_1297)"/>
<path d="M58.6544 24.652C65.4328 17.0218 74.649 18.2362 80.5462 24.652L84.1427 28.8159C85.388 30.1708 87.1904 30.8733 89.0238 30.719L95.418 28.8159C104.133 26.9476 112.053 33.4495 112.053 43.5483V47.3525C112.238 49.4295 114.052 50.8371 115.925 51.7521L121.702 54.1657C130.059 58.2466 132.147 67.9302 126.06 76.058L124.33 78.3404C122.779 80.4372 123.098 83.1895 124.642 85.2916L126.371 87.713C132.665 95.4596 129.116 106.088 120.225 109.801L115.252 111.879C113.379 112.661 112.645 114.003 112.295 116.003L111.949 122.505C110.739 131.428 102.814 135.458 96.4555 134.557L88.8814 132.534C87.062 132.277 84.8005 132.88 83.59 134.783L80.8577 138.518C74.0793 146.161 64.93 144.89 60.3144 140.42L55.2744 134.316C53.9545 133.037 52.2907 131.947 50.2994 132.698L42.6763 134.783C36.3828 135.673 28.9721 130.835 27.786 124.591L26.9057 115.553C26.5484 113.673 25.308 112.078 23.5726 111.27L18.225 109.432C10.1836 105.685 7.49017 96.6125 12.1074 89.0368L15.1214 84.8688C16.332 82.8824 16.2745 80.3728 14.9741 78.444L12.7261 75.2622C6.36259 66.201 10.7623 56.0732 20.1919 53.0371L22.2716 52.3672C24.5671 51.6281 26.7844 49.722 26.9751 47.318L27.4382 41.4823C28.1899 32.0101 36.8334 26.5747 45.9246 29.3385L48.8671 30.233C51.7027 31.3397 53.9245 30.3972 55.4726 28.7112L58.6544 24.652Z" fill="url(#paint9_radial_8_1297)"/>
<g filter="url(#filter0_d_8_1297)">
<path d="M69.6497 129.139C95.915 129.139 117.207 107.847 117.207 81.5813C117.207 55.3161 95.915 34.0242 69.6497 34.0242C43.3846 34.0242 22.0925 55.3161 22.0925 81.5813C22.0925 107.847 43.3846 129.139 69.6497 129.139Z" fill="url(#paint10_radial_8_1297)"/>
<path d="M69.6497 129.139C95.915 129.139 117.207 107.847 117.207 81.5813C117.207 55.3161 95.915 34.0242 69.6497 34.0242C43.3846 34.0242 22.0925 55.3161 22.0925 81.5813C22.0925 107.847 43.3846 129.139 69.6497 129.139Z" fill="url(#paint11_radial_8_1297)"/>
<path d="M69.6497 129.139C95.915 129.139 117.207 107.847 117.207 81.5813C117.207 55.3161 95.915 34.0242 69.6497 34.0242C43.3846 34.0242 22.0925 55.3161 22.0925 81.5813C22.0925 107.847 43.3846 129.139 69.6497 129.139Z" fill="url(#paint12_radial_8_1297)"/>
</g>
<path d="M80.8465 120.375C88.9545 120.375 95.5275 113.802 95.5275 105.694C95.5275 97.5861 88.9545 91.0131 80.8465 91.0131C72.7381 91.0131 66.1651 97.5861 66.1651 105.694C66.1651 113.802 72.7381 120.375 80.8465 120.375Z" fill="url(#paint13_radial_8_1297)"/>
<path d="M80.8465 120.375C88.9545 120.375 95.5275 113.802 95.5275 105.694C95.5275 97.5861 88.9545 91.0131 80.8465 91.0131C72.7381 91.0131 66.1651 97.5861 66.1651 105.694C66.1651 113.802 72.7381 120.375 80.8465 120.375Z" fill="url(#paint14_radial_8_1297)"/>
<g filter="url(#filter1_i_8_1297)">
<path d="M135.466 90.9952C122.54 78.397 101.858 78.6155 89.2592 91.5415C85.9993 94.8658 83.6264 98.7054 82.0643 102.806C81.7693 103.58 80.8141 103.884 80.1156 103.44C79.0863 102.785 77.9999 102.21 76.879 101.737C73.8933 100.353 70.5797 99.5885 67.0845 99.5885C54.0853 99.5885 43.5624 110.111 43.5624 123.11C43.5624 128.645 45.4922 133.743 48.6966 137.784C53.0294 143.465 59.8382 147.106 67.5214 147.106C76.77 147.106 103.351 147.106 113.728 147.106C123.996 147.106 133.062 142.044 138.597 134.289C148.501 121.326 147.445 102.684 135.466 90.9952Z" fill="#D5D4DA"/>
<path d="M135.466 90.9952C122.54 78.397 101.858 78.6155 89.2592 91.5415C85.9993 94.8658 83.6264 98.7054 82.0643 102.806C81.7693 103.58 80.8141 103.884 80.1156 103.44C79.0863 102.785 77.9999 102.21 76.879 101.737C73.8933 100.353 70.5797 99.5885 67.0845 99.5885C54.0853 99.5885 43.5624 110.111 43.5624 123.11C43.5624 128.645 45.4922 133.743 48.6966 137.784C53.0294 143.465 59.8382 147.106 67.5214 147.106C76.77 147.106 103.351 147.106 113.728 147.106C123.996 147.106 133.062 142.044 138.597 134.289C148.501 121.326 147.445 102.684 135.466 90.9952Z" fill="url(#paint15_linear_8_1297)"/>
</g>
<path d="M135.466 90.9952C122.54 78.397 101.858 78.6155 89.2592 91.5415C85.9993 94.8658 83.6264 98.7054 82.0643 102.806C81.7693 103.58 80.8141 103.884 80.1156 103.44C79.0863 102.785 77.9999 102.21 76.879 101.737C73.8933 100.353 70.5797 99.5885 67.0845 99.5885C54.0853 99.5885 43.5624 110.111 43.5624 123.11C43.5624 128.645 45.4922 133.743 48.6966 137.784C53.0294 143.465 59.8382 147.106 67.5214 147.106C76.77 147.106 103.351 147.106 113.728 147.106C123.996 147.106 133.062 142.044 138.597 134.289C148.501 121.326 147.445 102.684 135.466 90.9952Z" fill="url(#paint16_radial_8_1297)"/>
<path d="M135.466 90.9952C122.54 78.397 101.858 78.6155 89.2592 91.5415C85.9993 94.8658 83.6264 98.7054 82.0643 102.806C81.7693 103.58 80.8141 103.884 80.1156 103.44C79.0863 102.785 77.9999 102.21 76.879 101.737C73.8933 100.353 70.5797 99.5885 67.0845 99.5885C54.0853 99.5885 43.5624 110.111 43.5624 123.11C43.5624 128.645 45.4922 133.743 48.6966 137.784C53.0294 143.465 59.8382 147.106 67.5214 147.106C76.77 147.106 103.351 147.106 113.728 147.106C123.996 147.106 133.062 142.044 138.597 134.289C148.501 121.326 147.445 102.684 135.466 90.9952Z" fill="url(#paint17_radial_8_1297)"/>
<path d="M135.466 90.9952C122.54 78.397 101.858 78.6155 89.2592 91.5415C85.9993 94.8658 83.6264 98.7054 82.0643 102.806C81.7693 103.58 80.8141 103.884 80.1156 103.44C79.0863 102.785 77.9999 102.21 76.879 101.737C73.8933 100.353 70.5797 99.5885 67.0845 99.5885C54.0853 99.5885 43.5624 110.111 43.5624 123.11C43.5624 128.645 45.4922 133.743 48.6966 137.784C53.0294 143.465 59.8382 147.106 67.5214 147.106C76.77 147.106 103.351 147.106 113.728 147.106C123.996 147.106 133.062 142.044 138.597 134.289C148.501 121.326 147.445 102.684 135.466 90.9952Z" fill="url(#paint18_radial_8_1297)"/>
<path d="M135.466 90.9952C122.54 78.397 101.858 78.6155 89.2592 91.5415C85.9993 94.8658 83.6264 98.7054 82.0643 102.806C81.7693 103.58 80.8141 103.884 80.1156 103.44C79.0863 102.785 77.9999 102.21 76.879 101.737C73.8933 100.353 70.5797 99.5885 67.0845 99.5885C54.0853 99.5885 43.5624 110.111 43.5624 123.11C43.5624 128.645 45.4922 133.743 48.6966 137.784C53.0294 143.465 59.8382 147.106 67.5214 147.106C76.77 147.106 103.351 147.106 113.728 147.106C123.996 147.106 133.062 142.044 138.597 134.289C148.501 121.326 147.445 102.684 135.466 90.9952Z" fill="url(#paint19_radial_8_1297)"/>
<defs>
<filter id="filter0_d_8_1297" x="21.4925" y="34.0242" width="95.7146" height="95.7145" filterUnits="userSpaceOnUse" color-interpolation-filters="sRGB">
<feFlood flood-opacity="0" result="BackgroundImageFix"/>
<feColorMatrix in="SourceAlpha" type="matrix" values="0 0 0 0 0 0 0 0 0 0 0 0 0 0 0 0 0 0 127 0" result="hardAlpha"/>
<feOffset dx="-0.3" dy="0.3"/>
<feGaussianBlur stdDeviation="0.15"/>
<feComposite in2="hardAlpha" operator="out"/>
<feColorMatrix type="matrix" values="0 0 0 0 0.921569 0 0 0 0 0.47451 0 0 0 0 0.133333 0 0 0 1 0"/>
<feBlend mode="normal" in2="BackgroundImageFix" result="effect1_dropShadow_8_1297"/>
<feBlend mode="normal" in="SourceGraphic" in2="effect1_dropShadow_8_1297" result="shape"/>
</filter>
<filter id="filter1_i_8_1297" x="43.5624" y="80.6946" width="101.75" height="66.411" filterUnits="userSpaceOnUse" color-interpolation-filters="sRGB">
<feFlood flood-opacity="0" result="BackgroundImageFix"/>
<feBlend mode="normal" in="SourceGraphic" in2="BackgroundImageFix" result="shape"/>
<feColorMatrix in="SourceAlpha" type="matrix" values="0 0 0 0 0 0 0 0 0 0 0 0 0 0 0 0 0 0 127 0" result="hardAlpha"/>
<feOffset dy="-1"/>
<feGaussianBlur stdDeviation="1"/>
<feComposite in2="hardAlpha" operator="arithmetic" k2="-1" k3="1"/>
<feColorMatrix type="matrix" values="0 0 0 0 0.815686 0 0 0 0 0.784314 0 0 0 0 0.956863 0 0 0 1 0"/>
<feBlend mode="normal" in2="shape" result="effect1_innerShadow_8_1297"/>
</filter>
<linearGradient id="paint0_linear_8_1297" x1="106.586" y1="40.3051" x2="38.6342" y2="127.002" gradientUnits="userSpaceOnUse">
<stop stop-color="#FC8B23"/>
<stop offset="1" stop-color="#E67639"/>
</linearGradient>
<radialGradient id="paint1_radial_8_1297" cx="0" cy="0" r="1" gradientUnits="userSpaceOnUse" gradientTransform="translate(81.0902 25.1229) rotate(138.155) scale(16.7274 14.7587)">
<stop offset="0.300161" stop-color="#FFA13A"/>
<stop offset="1" stop-color="#FFA13A" stop-opacity="0"/>
</radialGradient>
<radialGradient id="paint2_radial_8_1297" cx="0" cy="0" r="1" gradientUnits="userSpaceOnUse" gradientTransform="translate(37.5696 19.8423) rotate(67.8105) scale(26.5926 23.4629)">
<stop offset="0.300161" stop-color="#FF942A"/>
<stop offset="1" stop-color="#FF942A" stop-opacity="0"/>
</radialGradient>
<radialGradient id="paint3_radial_8_1297" cx="0" cy="0" r="1" gradientUnits="userSpaceOnUse" gradientTransform="translate(108.988 44.6515) rotate(-164.745) scale(10.6028 14.681)">
<stop offset="0.300161" stop-color="#FFA13D"/>
<stop offset="1" stop-color="#FFA13D" stop-opacity="0"/>
</radialGradient>
<radialGradient id="paint4_radial_8_1297" cx="0" cy="0" r="1" gradientUnits="userSpaceOnUse" gradientTransform="translate(130.377 60.0882) rotate(154.195) scale(18.7993 13.8847)">
<stop offset="0.300161" stop-color="#FFA13D"/>
<stop offset="1" stop-color="#FFA13D" stop-opacity="0"/>
</radialGradient>
<radialGradient id="paint5_radial_8_1297" cx="0" cy="0" r="1" gradientUnits="userSpaceOnUse" gradientTransform="translate(134.468 91.8917) rotate(-173.379) scale(20.9703 11.8175)">
<stop offset="0.300161" stop-color="#FFA13D"/>
<stop offset="1" stop-color="#FFA13D" stop-opacity="0"/>
</radialGradient>
<radialGradient id="paint6_radial_8_1297" cx="0" cy="0" r="1" gradientUnits="userSpaceOnUse" gradientTransform="translate(115.684 116.256) rotate(-43.9639) scale(19.0218 18.3253)">
<stop stop-color="#E0762A"/>
<stop offset="1" stop-color="#E0762A" stop-opacity="0"/>
</radialGradient>
<radialGradient id="paint7_radial_8_1297" cx="0" cy="0" r="1" gradientUnits="userSpaceOnUse" gradientTransform="translate(27.5264 111.792) rotate(-127.747) scale(14.583 14.0491)">
<stop stop-color="#E0762A"/>
<stop offset="1" stop-color="#E0762A" stop-opacity="0"/>
</radialGradient>
<radialGradient id="paint8_radial_8_1297" cx="0" cy="0" r="1" gradientUnits="userSpaceOnUse" gradientTransform="translate(7.62584 62.5062) rotate(25.2777) scale(14.809 17.8988)">
<stop stop-color="#F0851D"/>
<stop offset="1" stop-color="#F0851D" stop-opacity="0"/>
</radialGradient>
<radialGradient id="paint9_radial_8_1297" cx="0" cy="0" r="1" gradientUnits="userSpaceOnUse" gradientTransform="translate(96.0235 137.376) rotate(-142.487) scale(17.2657 16.2887)">
<stop offset="0.336586" stop-color="#E3745B"/>
<stop offset="1" stop-color="#E3745B" stop-opacity="0"/>
</radialGradient>
<radialGradient id="paint10_radial_8_1297" cx="0" cy="0" r="1" gradientUnits="userSpaceOnUse" gradientTransform="translate(96.6376 54.0296) rotate(117.739) scale(84.862 104.796)">
<stop offset="0.17178" stop-color="#FFD13D"/>
<stop offset="1" stop-color="#D89A29"/>
</radialGradient>
<radialGradient id="paint11_radial_8_1297" cx="0" cy="0" r="1" gradientUnits="userSpaceOnUse" gradientTransform="translate(52.7465 108.963) rotate(-140.631) scale(29.6039 24.9943)">
<stop offset="0.340699" stop-color="#DCA225"/>
<stop offset="1" stop-color="#DCA225" stop-opacity="0"/>
</radialGradient>
<radialGradient id="paint12_radial_8_1297" cx="0" cy="0" r="1" gradientUnits="userSpaceOnUse" gradientTransform="translate(108.495 73.4603) rotate(168.299) scale(101.277 85.5072)">
<stop offset="0.620449" stop-color="#DCA225" stop-opacity="0"/>
<stop offset="1" stop-color="#DCA225"/>
</radialGradient>
<radialGradient id="paint13_radial_8_1297" cx="0" cy="0" r="1" gradientUnits="userSpaceOnUse" gradientTransform="translate(86.1393 100.247) rotate(-172.463) scale(20.1482 20.1482)">
<stop offset="0.308752" stop-color="#E8E8E9"/>
<stop offset="1" stop-color="#D2D2D2"/>
</radialGradient>
<radialGradient id="paint14_radial_8_1297" cx="0" cy="0" r="1" gradientUnits="userSpaceOnUse" gradientTransform="translate(82.4154 104.452) rotate(-141.242) scale(10.9378 10.0215)">
<stop stop-color="#CDCDCE"/>
<stop offset="1" stop-color="#CDCDCE" stop-opacity="0"/>
</radialGradient>
<linearGradient id="paint15_linear_8_1297" x1="104.832" y1="143.589" x2="104.832" y2="116.287" gradientUnits="userSpaceOnUse">
<stop stop-color="#DED7FA"/>
<stop offset="1" stop-color="#DED7FA" stop-opacity="0"/>
</linearGradient>
<radialGradient id="paint16_radial_8_1297" cx="0" cy="0" r="1" gradientUnits="userSpaceOnUse" gradientTransform="translate(132.134 103.686) rotate(136.5) scale(40.5332 43.48)">
<stop offset="0.178875" stop-color="#FCFBFE"/>
<stop offset="1" stop-color="#FCFBFE" stop-opacity="0"/>
</radialGradient>
<radialGradient id="paint17_radial_8_1297" cx="0" cy="0" r="1" gradientUnits="userSpaceOnUse" gradientTransform="translate(67.7597 119.228) rotate(144.444) scale(24.8668 26.0567)">
<stop stop-color="#FCFBFE"/>
<stop offset="1" stop-color="#FCFBFE" stop-opacity="0"/>
</radialGradient>
<radialGradient id="paint18_radial_8_1297" cx="0" cy="0" r="1" gradientUnits="userSpaceOnUse" gradientTransform="translate(127.918 112.461) rotate(166.654) scale(86.6973 68.277)">
<stop offset="0.815422" stop-color="#CECCD7" stop-opacity="0"/>
<stop offset="1" stop-color="#CECCD7"/>
</radialGradient>
<radialGradient id="paint19_radial_8_1297" cx="0" cy="0" r="1" gradientUnits="userSpaceOnUse" gradientTransform="translate(56.8056 150.805) rotate(-46.7899) scale(23.4878 32.4138)">
<stop stop-color="#D0C9EE"/>
<stop offset="1" stop-color="#D0C9EE" stop-opacity="0"/>
</radialGradient>
</defs>
</svg>
