<svg width="33" height="32" viewBox="0 0 33 32" fill="none" xmlns="http://www.w3.org/2000/svg">
<path d="M16 30C25.0018 30 29.5 23.9558 29.5 16.5C29.5 9.04416 25.0018 3 16 3C6.99821 3 2.5 9.04416 2.5 16.5C2.5 23.9558 6.99821 30 16 30Z" fill="url(#paint0_radial_8_1633)"/>
<path d="M16 30C25.0018 30 29.5 23.9558 29.5 16.5C29.5 9.04416 25.0018 3 16 3C6.99821 3 2.5 9.04416 2.5 16.5C2.5 23.9558 6.99821 30 16 30Z" fill="url(#paint1_radial_8_1633)"/>
<path d="M16 30C25.0018 30 29.5 23.9558 29.5 16.5C29.5 9.04416 25.0018 3 16 3C6.99821 3 2.5 9.04416 2.5 16.5C2.5 23.9558 6.99821 30 16 30Z" fill="url(#paint2_radial_8_1633)"/>
<path d="M16 30C25.0018 30 29.5 23.9558 29.5 16.5C29.5 9.04416 25.0018 3 16 3C6.99821 3 2.5 9.04416 2.5 16.5C2.5 23.9558 6.99821 30 16 30Z" fill="url(#paint3_radial_8_1633)" fill-opacity="0.6"/>
<path d="M16 30C25.0018 30 29.5 23.9558 29.5 16.5C29.5 9.04416 25.0018 3 16 3C6.99821 3 2.5 9.04416 2.5 16.5C2.5 23.9558 6.99821 30 16 30Z" fill="url(#paint4_radial_8_1633)"/>
<path d="M16 30C25.0018 30 29.5 23.9558 29.5 16.5C29.5 9.04416 25.0018 3 16 3C6.99821 3 2.5 9.04416 2.5 16.5C2.5 23.9558 6.99821 30 16 30Z" fill="url(#paint5_radial_8_1633)"/>
<path d="M16 30C25.0018 30 29.5 23.9558 29.5 16.5C29.5 9.04416 25.0018 3 16 3C6.99821 3 2.5 9.04416 2.5 16.5C2.5 23.9558 6.99821 30 16 30Z" fill="url(#paint6_radial_8_1633)"/>
<path d="M16 30C25.0018 30 29.5 23.9558 29.5 16.5C29.5 9.04416 25.0018 3 16 3C6.99821 3 2.5 9.04416 2.5 16.5C2.5 23.9558 6.99821 30 16 30Z" fill="url(#paint7_radial_8_1633)"/>
<path d="M8 23C10.4853 23 12.5 20.9853 12.5 18.5C12.5 16.0147 10.4853 14 8 14C5.51472 14 3.5 16.0147 3.5 18.5C3.5 20.9853 5.51472 23 8 23Z" fill="url(#paint8_radial_8_1633)"/>
<path fill-rule="evenodd" clip-rule="evenodd" d="M14.5 13.5C14.5 15.433 12.933 17 11 17C9.06701 17 7.5 15.433 7.5 13.5C7.5 11.567 9.06701 10 11 10C12.933 10 14.5 11.567 14.5 13.5ZM23.5 13.5C23.5 15.433 21.933 17 20 17C18.067 17 16.5 15.433 16.5 13.5C16.5 11.567 18.067 10 20 10C21.933 10 23.5 11.567 23.5 13.5Z" fill="white"/>
<path fill-rule="evenodd" clip-rule="evenodd" d="M14 13.5C14 14.8807 12.8807 16 11.5 16C10.1193 16 9 14.8807 9 13.5C9 12.1193 10.1193 11 11.5 11C12.8807 11 14 12.1193 14 13.5ZM22 13.5C22 14.8807 20.8807 16 19.5 16C18.1193 16 17 14.8807 17 13.5C17 12.1193 18.1193 11 19.5 11C20.8807 11 22 12.1193 22 13.5Z" fill="#402A32"/>
<path fill-rule="evenodd" clip-rule="evenodd" d="M12 7C12.2761 7 12.5 7.22386 12.5 7.5C12.5 8.63568 12.0691 9.52418 11.3947 10.1237C10.7294 10.7151 9.85654 11 9 11C8.72386 11 8.5 10.7761 8.5 10.5C8.5 10.2239 8.72386 10 9 10C9.64346 10 10.2706 9.78495 10.7303 9.3763C11.1809 8.97582 11.5 8.36432 11.5 7.5C11.5 7.22386 11.7239 7 12 7Z" fill="#402A32"/>
<path fill-rule="evenodd" clip-rule="evenodd" d="M20 7C19.7239 7 19.5 7.22386 19.5 7.5C19.5 8.63568 19.9309 9.52418 20.6053 10.1237C21.2706 10.7151 22.1435 11 23 11C23.2761 11 23.5 10.7761 23.5 10.5C23.5 10.2239 23.2761 10 23 10C22.3565 10 21.7294 9.78495 21.2697 9.3763C20.8191 8.97582 20.5 8.36432 20.5 7.5C20.5 7.22386 20.2761 7 20 7Z" fill="#402A32"/>
<path fill-rule="evenodd" clip-rule="evenodd" d="M29.6533 17.6339C30.5557 16.9969 30.7709 15.749 30.1339 14.8466C29.4969 13.9442 28.249 13.7291 27.3466 14.366L18.8466 20.366C18.6019 20.5388 18.4077 20.7565 18.2673 21H19.4999C20.6045 21 21.4999 21.8954 21.4999 23V23.3892L29.6533 17.6339Z" fill="url(#paint9_linear_8_1633)"/>
<path fill-rule="evenodd" clip-rule="evenodd" d="M29.0767 16.817C29.5279 16.4985 29.6355 15.8745 29.317 15.4233C28.9985 14.9721 28.3745 14.8646 27.9233 15.1831L19.6722 21.0073C20.4419 21.073 21.0871 21.5745 21.3602 22.2639L29.0767 16.817Z" fill="url(#paint10_linear_8_1633)"/>
<path d="M9.5 22.5C9.5 22.5 11.5 20 15.5 20C19.5 20 21.5 22.5 21.5 22.5" stroke="#402A32" stroke-width="2" stroke-linecap="round" stroke-linejoin="round"/>
<path fill-rule="evenodd" clip-rule="evenodd" d="M21.3429 18.604L22.1096 19.5623C22.2821 19.778 22.5967 19.8129 22.8124 19.6404C23.028 19.4679 23.063 19.1533 22.8905 18.9376L22.1613 18.0262L21.3429 18.604Z" fill="#212121"/>
<path fill-rule="evenodd" clip-rule="evenodd" d="M24.9918 16.0282L24.1748 16.6049L24.8431 17.5406C25.0036 17.7653 25.3158 17.8173 25.5406 17.6568C25.7653 17.4963 25.8173 17.1841 25.6568 16.9594L24.9918 16.0282Z" fill="#212121"/>
<path fill-rule="evenodd" clip-rule="evenodd" d="M26.8091 14.7454L27.6 15.8C27.7657 16.0209 28.0791 16.0657 28.3 15.9C28.5209 15.7343 28.5657 15.4209 28.4 15.2L27.644 14.192C27.5417 14.2406 27.4422 14.2985 27.3466 14.366L26.8091 14.7454Z" fill="#212121"/>
<defs>
<radialGradient id="paint0_radial_8_1633" cx="0" cy="0" r="1" gradientUnits="userSpaceOnUse" gradientTransform="translate(25.1625 9.75054) rotate(132.839) scale(36.1668)">
<stop stop-color="#FFF478"/>
<stop offset="0.474827" stop-color="#FFB02E"/>
<stop offset="1" stop-color="#F70A8D"/>
</radialGradient>
<radialGradient id="paint1_radial_8_1633" cx="0" cy="0" r="1" gradientUnits="userSpaceOnUse" gradientTransform="translate(25.1625 9.75054) rotate(131.878) scale(37.5607)">
<stop stop-color="#FFF478"/>
<stop offset="0.474827" stop-color="#FFB02E"/>
<stop offset="1" stop-color="#F70A8D"/>
</radialGradient>
<radialGradient id="paint2_radial_8_1633" cx="0" cy="0" r="1" gradientUnits="userSpaceOnUse" gradientTransform="translate(16.0011 13.1258) rotate(101.31) scale(17.2106 22.0435)">
<stop offset="0.787821" stop-color="#F59639" stop-opacity="0"/>
<stop offset="0.972509" stop-color="#FF7DCE"/>
</radialGradient>
<radialGradient id="paint3_radial_8_1633" cx="0" cy="0" r="1" gradientUnits="userSpaceOnUse" gradientTransform="translate(17.9298 14.5724) rotate(135) scale(39.5506)">
<stop offset="0.314853" stop-opacity="0"/>
<stop offset="1"/>
</radialGradient>
<radialGradient id="paint4_radial_8_1633" cx="0" cy="0" r="1" gradientUnits="userSpaceOnUse" gradientTransform="translate(16.0011 17.4654) rotate(77.692) scale(27.1439)">
<stop offset="0.507903" stop-color="#7D6133" stop-opacity="0"/>
<stop offset="1" stop-color="#715B32"/>
</radialGradient>
<radialGradient id="paint5_radial_8_1633" cx="0" cy="0" r="1" gradientUnits="userSpaceOnUse" gradientTransform="translate(16.4833 16.9833) rotate(55.7131) scale(12.8391 9.30641)">
<stop stop-color="#FFB849"/>
<stop offset="1" stop-color="#FFB847" stop-opacity="0"/>
</radialGradient>
<radialGradient id="paint6_radial_8_1633" cx="0" cy="0" r="1" gradientUnits="userSpaceOnUse" gradientTransform="translate(20.3407 18.4298) rotate(9.86581) scale(11.2566)">
<stop stop-color="#FFA64B"/>
<stop offset="0.900412" stop-color="#FFAE46" stop-opacity="0"/>
</radialGradient>
<radialGradient id="paint7_radial_8_1633" cx="0" cy="0" r="1" gradientUnits="userSpaceOnUse" gradientTransform="translate(17.4476 15.5367) rotate(43.9708) scale(56.9485)">
<stop offset="0.185425" stop-opacity="0"/>
<stop offset="1" stop-opacity="0.4"/>
</radialGradient>
<radialGradient id="paint8_radial_8_1633" cx="0" cy="0" r="1" gradientUnits="userSpaceOnUse" gradientTransform="translate(8.00355 18.5008) scale(4.49645)">
<stop stop-color="#FA666E"/>
<stop offset="1" stop-color="#FF6DC6" stop-opacity="0"/>
</radialGradient>
<linearGradient id="paint9_linear_8_1633" x1="24" y1="16.5" x2="26.5" y2="20" gradientUnits="userSpaceOnUse">
<stop stop-color="#BCABBB"/>
<stop offset="0.301039" stop-color="#EFEAF4"/>
<stop offset="1" stop-color="#DDA8FF"/>
</linearGradient>
<linearGradient id="paint10_linear_8_1633" x1="23" y1="16.5" x2="25.5" y2="20.5" gradientUnits="userSpaceOnUse">
<stop offset="0.245799" stop-color="#F5243E"/>
<stop offset="0.936305" stop-color="#FF20C9"/>
</linearGradient>
</defs>
</svg>
