<svg width="33" height="32" viewBox="0 0 33 32" fill="none" xmlns="http://www.w3.org/2000/svg">
<g filter="url(#filter0_i_8_1812)">
<path d="M16.4989 29.9978C25.8333 29.9978 30.4978 23.7303 30.4978 15.9989C30.4978 8.26751 25.8333 2 16.4989 2C7.16443 2 2.5 8.26751 2.5 15.9989C2.5 23.7303 7.16443 29.9978 16.4989 29.9978Z" fill="url(#paint0_radial_8_1812)"/>
</g>
<path d="M16.4989 29.9978C25.8333 29.9978 30.4978 23.7303 30.4978 15.9989C30.4978 8.26751 25.8333 2 16.4989 2C7.16443 2 2.5 8.26751 2.5 15.9989C2.5 23.7303 7.16443 29.9978 16.4989 29.9978Z" fill="url(#paint1_radial_8_1812)"/>
<path d="M16.4989 29.9978C25.8333 29.9978 30.4978 23.7303 30.4978 15.9989C30.4978 8.26751 25.8333 2 16.4989 2C7.16443 2 2.5 8.26751 2.5 15.9989C2.5 23.7303 7.16443 29.9978 16.4989 29.9978Z" fill="url(#paint2_radial_8_1812)"/>
<g opacity="0.9" filter="url(#filter1_f_8_1812)">
<path style="mix-blend-mode:multiply" d="M23.0146 7.48731L23.0146 7.48732C22.4354 8.06656 22.4354 9.0057 23.0146 9.58495L24.9521 11.5225C25.5314 12.1017 26.4705 12.1017 27.0497 11.5224L27.0497 11.5224C27.629 10.9432 27.629 10.0041 27.0497 9.42481L25.1122 7.48731C24.533 6.90806 23.5939 6.90806 23.0146 7.48731Z" fill="url(#paint3_radial_8_1812)"/>
</g>
<path d="M8.5 22.5C8.5 21.1193 7.38071 20 6 20C4.61929 20 3.5 21.1193 3.5 22.5V24.5C3.5 25.8807 4.61929 27 6 27C7.38071 27 8.5 25.8807 8.5 24.5V22.5Z" fill="url(#paint4_radial_8_1812)"/>
<path d="M30.5 6.5C30.5 5.11929 29.3807 4 28 4C26.6193 4 25.5 5.11929 25.5 6.5V8.5C25.5 9.88071 26.6193 11 28 11C29.3807 11 30.5 9.88071 30.5 8.5V6.5Z" fill="url(#paint5_radial_8_1812)"/>
<g filter="url(#filter2_f_8_1812)">
<path style="mix-blend-mode:multiply" fill-rule="evenodd" clip-rule="evenodd" d="M8.94877 11.9111C8.9073 11.5684 9.15149 11.257 9.49417 11.2155C10.7118 11.0682 11.3097 10.493 11.6217 9.99062C11.7843 9.72889 11.8762 9.47403 11.927 9.28526C11.9522 9.19155 11.9667 9.11626 11.9746 9.06753C11.9785 9.04323 11.9808 9.02578 11.9819 9.0162L11.9828 9.00816C12.0126 8.66627 12.3129 8.41203 12.6555 8.43957C12.9996 8.46723 13.2561 8.76857 13.2284 9.11264L12.6054 9.06256C13.2284 9.11264 13.2284 9.11227 13.2284 9.11264L13.2283 9.11415L13.2282 9.1159L13.2278 9.12008L13.2267 9.13113C13.2259 9.13967 13.2247 9.15056 13.2232 9.16366C13.2201 9.18984 13.2154 9.22492 13.2084 9.26774C13.1946 9.35322 13.1716 9.47044 13.1341 9.60988C13.0595 9.88742 12.925 10.2615 12.6836 10.6501C12.1877 11.4485 11.2676 12.2601 9.64432 12.4565C9.30164 12.4979 8.99023 12.2538 8.94877 11.9111Z" fill="url(#paint6_radial_8_1812)" fill-opacity="0.75"/>
</g>
<path d="M11.8661 8.4375C11.8661 8.4375 11.8661 11.0781 8.94421 11.3281" stroke="url(#paint7_radial_8_1812)" stroke-width="1.25" stroke-linecap="round" stroke-linejoin="round"/>
<g filter="url(#filter3_f_8_1812)">
<path style="mix-blend-mode:multiply" fill-rule="evenodd" clip-rule="evenodd" d="M24.3129 11.9111C24.3544 11.5684 24.1102 11.257 23.7675 11.2155C22.55 11.0682 21.952 10.493 21.64 9.99062C21.4774 9.72889 21.3855 9.47403 21.3347 9.28526C21.3095 9.19155 21.2951 9.11626 21.2872 9.06753C21.2832 9.04323 21.2809 9.02578 21.2798 9.0162L21.2789 9.00816C21.2491 8.66627 20.9488 8.41203 20.6062 8.43957C20.2621 8.46723 20.0056 8.76857 20.0333 9.11264L20.6563 9.06256C20.0333 9.11264 20.0332 9.11227 20.0333 9.11264L20.0334 9.11415L20.0336 9.1159L20.0339 9.12008L20.035 9.13113C20.0358 9.13967 20.037 9.15056 20.0385 9.16366C20.0416 9.18984 20.0463 9.22492 20.0533 9.26774C20.0672 9.35322 20.0901 9.47044 20.1276 9.60988C20.2023 9.88742 20.3367 10.2615 20.5781 10.6501C21.074 11.4485 21.9941 12.2601 23.6174 12.4565C23.9601 12.4979 24.2715 12.2538 24.3129 11.9111Z" fill="url(#paint8_radial_8_1812)" fill-opacity="0.75"/>
</g>
<path d="M21.1317 8.4375C21.1317 8.4375 21.1317 11.0781 24.0536 11.3281" stroke="url(#paint9_radial_8_1812)" stroke-width="1.25" stroke-linecap="round" stroke-linejoin="round"/>
<g filter="url(#filter4_f_8_1812)">
<path d="M19.8697 13.4531C18.6157 14.1118 17.7617 15.4175 17.7617 16.9207C17.7617 19.0874 19.536 20.8437 21.7246 20.8437C23.9133 20.8437 25.6875 19.0874 25.6875 16.9207C25.6875 15.7652 25.1828 14.7264 24.3798 14.0084C23.858 14.1773 23.2995 14.2687 22.719 14.2687C21.6681 14.2687 20.6896 13.969 19.8697 13.4531Z" fill="#FB6E27" fill-opacity="0.75"/>
</g>
<g filter="url(#filter5_f_8_1812)">
<path d="M12.4016 13.4531C13.6555 14.1118 14.5095 15.4175 14.5095 16.9207C14.5095 19.0874 12.7353 20.8437 10.5466 20.8437C8.35799 20.8437 6.58374 19.0874 6.58374 16.9207C6.58374 15.7652 7.08841 14.7264 7.89145 14.0084C8.41328 14.1773 8.97174 14.2687 9.55225 14.2687C10.6031 14.2687 11.5816 13.969 12.4016 13.4531Z" fill="#B24B35"/>
</g>
<path d="M20.0141 12.4531C18.6742 13.1641 17.7617 14.5735 17.7617 16.1959C17.7617 18.5345 19.6575 20.4303 21.9961 20.4303C24.3347 20.4303 26.2305 18.5345 26.2305 16.1959C26.2305 14.9487 25.6912 13.8274 24.8332 13.0525C24.2756 13.2347 23.6789 13.3335 23.0586 13.3335C21.9358 13.3335 20.8902 13.01 20.0141 12.4531Z" fill="white"/>
<path d="M20.4414 18.2193C21.5201 18.2193 22.3945 17.3449 22.3945 16.2662C22.3945 15.1875 21.5201 14.3131 20.4414 14.3131C19.3627 14.3131 18.4883 15.1875 18.4883 16.2662C18.4883 17.3449 19.3627 18.2193 20.4414 18.2193Z" fill="#402931"/>
<path d="M12.9837 12.4531C14.3236 13.1641 15.2361 14.5735 15.2361 16.1959C15.2361 18.5345 13.3403 20.4303 11.0017 20.4303C8.66313 20.4303 6.76733 18.5345 6.76733 16.1959C6.76733 14.9487 7.30657 13.8274 8.16463 13.0525C8.72221 13.2347 9.31892 13.3335 9.93921 13.3335C11.062 13.3335 12.1076 13.01 12.9837 12.4531Z" fill="white"/>
<path d="M12.5564 18.2193C11.4777 18.2193 10.6033 17.3449 10.6033 16.2662C10.6033 15.1875 11.4777 14.3131 12.5564 14.3131C13.6351 14.3131 14.5095 15.1875 14.5095 16.2662C14.5095 17.3449 13.6351 18.2193 12.5564 18.2193Z" fill="#402931"/>
<path d="M17.6754 20.9531H15.3223C13.7759 20.9531 12.5223 22.2067 12.5223 23.7531V23.8406C12.5223 25.387 13.7759 26.6406 15.3223 26.6406H17.6754C19.2218 26.6406 20.4754 25.387 20.4754 23.8406V23.7531C20.4754 22.2067 19.2218 20.9531 17.6754 20.9531Z" fill="url(#paint10_linear_8_1812)"/>
<path d="M16.4999 28.5C19.5481 28.5 20.0343 25.8558 20.1287 25.0937C20.2012 24.4768 19.8746 23.7608 19.519 23.5503C19.1634 23.3399 18.0966 23.1439 16.4999 23.1439C14.9033 23.1439 13.8437 23.3399 13.4808 23.5503C13.1179 23.7608 12.7913 24.4768 12.8711 25.0937C12.9655 25.8558 13.4517 28.5 16.4999 28.5Z" fill="url(#paint11_radial_8_1812)"/>
<g opacity="0.5" filter="url(#filter6_f_8_1812)">
<path d="M17.9401 26.6857C18.6658 26.3228 19.3916 25.597 19.3916 24.5084" stroke="white"/>
</g>
<defs>
<filter id="filter0_i_8_1812" x="2.5" y="0" width="29.9978" height="29.9978" filterUnits="userSpaceOnUse" color-interpolation-filters="sRGB">
<feFlood flood-opacity="0" result="BackgroundImageFix"/>
<feBlend mode="normal" in="SourceGraphic" in2="BackgroundImageFix" result="shape"/>
<feColorMatrix in="SourceAlpha" type="matrix" values="0 0 0 0 0 0 0 0 0 0 0 0 0 0 0 0 0 0 127 0" result="hardAlpha"/>
<feOffset dx="2" dy="-2"/>
<feGaussianBlur stdDeviation="2"/>
<feComposite in2="hardAlpha" operator="arithmetic" k2="-1" k3="1"/>
<feColorMatrix type="matrix" values="0 0 0 0 0 0 0 0 0 0 0 0 0 0 0 0 0 0 0.08 0"/>
<feBlend mode="normal" in2="shape" result="effect1_innerShadow_8_1812"/>
</filter>
<filter id="filter1_f_8_1812" x="21.5802" y="6.05287" width="6.90402" height="6.90401" filterUnits="userSpaceOnUse" color-interpolation-filters="sRGB">
<feFlood flood-opacity="0" result="BackgroundImageFix"/>
<feBlend mode="normal" in="SourceGraphic" in2="BackgroundImageFix" result="shape"/>
<feGaussianBlur stdDeviation="0.5" result="effect1_foregroundBlur_8_1812"/>
</filter>
<filter id="filter2_f_8_1812" x="8.44418" y="7.93753" width="5.28625" height="5.02354" filterUnits="userSpaceOnUse" color-interpolation-filters="sRGB">
<feFlood flood-opacity="0" result="BackgroundImageFix"/>
<feBlend mode="normal" in="SourceGraphic" in2="BackgroundImageFix" result="shape"/>
<feGaussianBlur stdDeviation="0.25" result="effect1_foregroundBlur_8_1812"/>
</filter>
<filter id="filter3_f_8_1812" x="19.5312" y="7.93753" width="5.28625" height="5.02354" filterUnits="userSpaceOnUse" color-interpolation-filters="sRGB">
<feFlood flood-opacity="0" result="BackgroundImageFix"/>
<feBlend mode="normal" in="SourceGraphic" in2="BackgroundImageFix" result="shape"/>
<feGaussianBlur stdDeviation="0.25" result="effect1_foregroundBlur_8_1812"/>
</filter>
<filter id="filter4_f_8_1812" x="15.7617" y="11.4531" width="11.9258" height="11.3906" filterUnits="userSpaceOnUse" color-interpolation-filters="sRGB">
<feFlood flood-opacity="0" result="BackgroundImageFix"/>
<feBlend mode="normal" in="SourceGraphic" in2="BackgroundImageFix" result="shape"/>
<feGaussianBlur stdDeviation="1" result="effect1_foregroundBlur_8_1812"/>
</filter>
<filter id="filter5_f_8_1812" x="4.58374" y="11.4531" width="11.9258" height="11.3906" filterUnits="userSpaceOnUse" color-interpolation-filters="sRGB">
<feFlood flood-opacity="0" result="BackgroundImageFix"/>
<feBlend mode="normal" in="SourceGraphic" in2="BackgroundImageFix" result="shape"/>
<feGaussianBlur stdDeviation="1" result="effect1_foregroundBlur_8_1812"/>
</filter>
<filter id="filter6_f_8_1812" x="16.7165" y="23.5084" width="4.17514" height="4.6245" filterUnits="userSpaceOnUse" color-interpolation-filters="sRGB">
<feFlood flood-opacity="0" result="BackgroundImageFix"/>
<feBlend mode="normal" in="SourceGraphic" in2="BackgroundImageFix" result="shape"/>
<feGaussianBlur stdDeviation="0.5" result="effect1_foregroundBlur_8_1812"/>
</filter>
<radialGradient id="paint0_radial_8_1812" cx="0" cy="0" r="1" gradientUnits="userSpaceOnUse" gradientTransform="translate(26 9) rotate(132.839) scale(37.5033)">
<stop stop-color="#FFF478"/>
<stop offset="0.474827" stop-color="#FFB02E"/>
<stop offset="1" stop-color="#F70A8D"/>
</radialGradient>
<radialGradient id="paint1_radial_8_1812" cx="0" cy="0" r="1" gradientUnits="userSpaceOnUse" gradientTransform="translate(16.5 12.5) rotate(90) scale(17.8854)">
<stop offset="0.823911" stop-color="#F59639" stop-opacity="0"/>
<stop offset="1" stop-color="#FF63C4"/>
</radialGradient>
<radialGradient id="paint2_radial_8_1812" cx="0" cy="0" r="1" gradientUnits="userSpaceOnUse" gradientTransform="translate(16.4989 35.1875) rotate(-90) scale(30.6875 67.5153)">
<stop offset="0.34375" stop-color="#F59639" stop-opacity="0"/>
<stop offset="1" stop-color="#E73550"/>
</radialGradient>
<radialGradient id="paint3_radial_8_1812" cx="0" cy="0" r="1" gradientUnits="userSpaceOnUse" gradientTransform="translate(24.2099 8.88493) rotate(50.5885) scale(6.42037 2.27261)">
<stop stop-color="#993D29"/>
<stop offset="1" stop-color="#B14B35" stop-opacity="0"/>
</radialGradient>
<radialGradient id="paint4_radial_8_1812" cx="0" cy="0" r="1" gradientUnits="userSpaceOnUse" gradientTransform="translate(7.66667 20.3182) rotate(108.861) scale(7.73342 3.61978)">
<stop stop-color="#5C98FF"/>
<stop offset="0.805982" stop-color="#3D5BF1"/>
<stop offset="0.962238" stop-color="#6065CA"/>
</radialGradient>
<radialGradient id="paint5_radial_8_1812" cx="0" cy="0" r="1" gradientUnits="userSpaceOnUse" gradientTransform="translate(29.6667 4.31818) rotate(108.861) scale(7.73342 3.61978)">
<stop stop-color="#5C98FF"/>
<stop offset="0.805982" stop-color="#3D5BF1"/>
<stop offset="0.962238" stop-color="#6065CA"/>
</radialGradient>
<radialGradient id="paint6_radial_8_1812" cx="0" cy="0" r="1" gradientUnits="userSpaceOnUse" gradientTransform="translate(11.2941 11.1683) rotate(-78.6614) scale(4.595 3.23495)">
<stop offset="0.255208" stop-color="#993D29"/>
<stop offset="1" stop-color="#B14B35" stop-opacity="0"/>
</radialGradient>
<radialGradient id="paint7_radial_8_1812" cx="0" cy="0" r="1" gradientUnits="userSpaceOnUse" gradientTransform="translate(9.56921 9.875) rotate(49.8812) scale(4.02522 9.57068)">
<stop offset="0.137915" stop-color="#694F62"/>
<stop offset="0.398102" stop-color="#482641"/>
</radialGradient>
<radialGradient id="paint8_radial_8_1812" cx="0" cy="0" r="1" gradientUnits="userSpaceOnUse" gradientTransform="translate(21.9677 11.1683) rotate(-101.339) scale(4.595 3.23495)">
<stop offset="0.255208" stop-color="#993D29"/>
<stop offset="1" stop-color="#B14B35" stop-opacity="0"/>
</radialGradient>
<radialGradient id="paint9_radial_8_1812" cx="0" cy="0" r="1" gradientUnits="userSpaceOnUse" gradientTransform="translate(23.4286 9.875) rotate(130.119) scale(4.02522 9.57068)">
<stop offset="0.137915" stop-color="#694F62"/>
<stop offset="0.398102" stop-color="#482641"/>
</radialGradient>
<linearGradient id="paint10_linear_8_1812" x1="16.4989" y1="20.9531" x2="16.4989" y2="26.6406" gradientUnits="userSpaceOnUse">
<stop stop-color="#6D014D"/>
<stop offset="1" stop-color="#750C3F"/>
</linearGradient>
<radialGradient id="paint11_radial_8_1812" cx="0" cy="0" r="1" gradientUnits="userSpaceOnUse" gradientTransform="translate(16.4887 29.4062) rotate(-90) scale(7.07513 12.2996)">
<stop offset="0.135417" stop-color="#FF1C4A"/>
<stop offset="0.619792" stop-color="#FF2B8F"/>
<stop offset="0.755208" stop-color="#BB0773"/>
<stop offset="0.869792" stop-color="#9F0762"/>
</radialGradient>
</defs>
</svg>
